<?xml version="1.0" standalone="no"?>
<!DOCTYPE svg PUBLIC "-//W3C//DTD SVG 1.1//EN" "http://www.w3.org/Graphics/SVG/1.1/DTD/svg11.dtd">
<svg xmlns="http://www.w3.org/2000/svg">
<defs >
<font id="KumbhSans" horiz-adv-x="1158" ><font-face
    font-family="Kumbh Sans Black"
    units-per-em="2048"
    panose-1="0 0 0 0 0 0 0 0 0 0"
    ascent="2020"
    descent="-520"
    alphabetic="0" />
<glyph unicode=" " horiz-adv-x="440" />
<glyph unicode="!" horiz-adv-x="498" d="M355 420H144L100 1500H399L355 420ZM248 -20Q181 -20 136 25T90 135Q90 200 135 245T248 290Q316 290 362 245T408 135Q408 70 362 25T248 -20Z" />
<glyph unicode="&quot;" horiz-adv-x="808" d="M326 1085H134L100 1520H360L326 1085ZM674 1085H482L448 1520H708L674 1085Z" />
<glyph unicode="#" horiz-adv-x="1341" d="M1283 814H1073L1030 572H1249L1211 332H988L929 0H640L699 332H484L425 0H137L195 332H20L57 572H238L280 814H91L130 1054H323L402 1500H690L611 1054H826L905 1500H1194L1115 1054H1321L1283 814ZM526 572H741L784
814H569L526 572Z" />
<glyph unicode="$" horiz-adv-x="1106" d="M30 239L194 506Q259 455 315 424T425 378T534 363Q589 363 628 375T687 412T708 470Q708 513 678 542T600 595T495 642Q429 669 362 701T238 777T147 887T112 1046Q112 1204 210 1302T465 1429L456 1620H686L677 1435Q760
1426 848 1400T1027 1330L891 1049Q827 1088 751 1111T613 1135Q547 1135 509 1109T470 1039Q470 1000 499 971T578 917T687 866Q751 838 817 805T940 725T1031 615T1066 462Q1066 361 1019 280T884 145T677 71L686 -120H456L465 64Q347 75 236 120T30 239Z" />
<glyph unicode="%" horiz-adv-x="1592" d="M374 873Q219 873 125 962T30 1196Q30 1342 124 1431T374 1520Q529 1520 624 1431T719 1196Q719 1051 624 962T374 873ZM467 1H169L1136 1501H1434L467 1ZM374 1073Q416 1073 442 1107T469 1197Q469 1253 443 1287T374
1321Q331 1321 306 1287T280 1197Q280 1142 305 1108T374 1073ZM1218 -21Q1064 -21 969 68T874 303Q874 449 969 538T1218 627Q1373 627 1467 538T1562 303Q1562 158 1468 69T1218 -21ZM1218 180Q1260 180 1286 214T1312 303Q1312 359 1286 393T1218 428Q1175 428
1150 394T1124 303Q1124 248 1149 214T1218 180Z" />
<glyph unicode="&amp;" horiz-adv-x="1447" d="M1427 182L1285 -30Q1222 8 1162 47T1046 126Q949 51 836 11T597 -30Q448 -30 329 25T140 176T70 394Q70 491 113 561T225 683T372 779Q310 879 277 973T244 1152Q244 1264 297 1349T445 1482T661 1530Q778 1530
868 1487T1009 1366T1061 1190Q1061 1080 1012 1005T886 876T725 778Q780 710 850 639T1007 493Q1042 546 1070 610T1117 745L1387 669Q1360 569 1320 481T1228 319Q1284 276 1325 248T1427 182ZM625 925Q664 954 693 987T738 1060T755 1151Q755 1213 730 1251T661
1289Q616 1289 586 1249T556 1144Q556 1098 573 1042T625 925ZM480 629Q457 608 440 584T413 532T404 470Q404 409 434 361T516 285T637 257Q681 257 725 269T811 304Q712 386 629 467T480 629Z" />
<glyph unicode="&apos;" horiz-adv-x="460" d="M326 1085H134L100 1520H360L326 1085Z" />
<glyph unicode="(" horiz-adv-x="672" d="M652 -289H296Q163 -110 92 127T20 625Q20 885 91 1122T296 1540H652Q500 1342 420 1109T340 627Q340 380 420 146T652 -289Z" />
<glyph unicode=")" horiz-adv-x="672" d="M376 -289H20Q172 -89 252 145T332 627Q332 875 252 1108T20 1540H376Q509 1360 580 1123T652 625Q652 365 581 128T376 -289Z" />
<glyph unicode="*" horiz-adv-x="1056" d="M926 733L707 574L528 889L349 574L130 733L374 1000L20 1074L103 1330L433 1181L393 1541H663L623 1181L953 1330L1036 1074L682 1000L926 733Z" />
<glyph unicode="+" horiz-adv-x="1106" d="M1006 337H713V52H393V337H100V627H393V911H713V627H1006V337Z" />
<glyph unicode="," horiz-adv-x="490" d="M300 -240H60L130 200H420L300 -240Z" />
<glyph unicode="-" horiz-adv-x="1000" d="M900 360H100V640H900V360Z" />
<glyph unicode="." horiz-adv-x="500" d="M250 -20Q178 -20 134 24T90 140Q90 212 134 256T250 300Q322 300 366 256T410 140Q410 68 366 24T250 -20Z" />
<glyph unicode="/" horiz-adv-x="1005" d="M356 -20H10L649 1520H995L356 -20Z" />
<glyph unicode="0" horiz-adv-x="1274" d="M637 -30Q462 -30 333 61T132 327T60 751Q60 999 131 1173T332 1438T637 1530Q812 1530 941 1439T1142 1173T1214 751Q1214 502 1143 328T942 62T637 -30ZM637 315Q720 315 764 428T809 750Q809 959 765 1072T637 1185Q555
1185 510 1072T465 750Q465 541 510 428T637 315Z" />
<glyph unicode="1" horiz-adv-x="892" d="M772 0H376V1112L143 1027L20 1340L460 1500H772V0Z" />
<glyph unicode="2" horiz-adv-x="1213" d="M1123 0H130V227Q302 386 415 500T594 697T687 847T715 977Q715 1042 692 1089T628 1161T531 1187Q466 1187 404 1151T296 1049L100 1304Q195 1412 331 1471T609 1530Q746 1530 862 1473T1049 1309T1120 1051Q1120 955
1090 862T1002 681T865 508T685 345H1123V0Z" />
<glyph unicode="3" horiz-adv-x="1208" d="M90 124L237 417Q315 367 385 341T516 315Q571 315 614 335T681 390T706 472Q706 550 636 593T441 637H370V908H441Q509 908 562 927T645 981T675 1061Q675 1097 655 1125T600 1169T520 1185Q471 1185 412 1163T279 1095L110
1370Q202 1447 317 1488T560 1530Q702 1530 812 1480T985 1343T1048 1140Q1048 1022 982 928T806 781Q952 735 1035 639T1118 409Q1118 283 1045 184T845 27T559 -30Q430 -30 310 10T90 124Z" />
<glyph unicode="4" horiz-adv-x="1319" d="M1116 0H720V271H20V571L721 1500H1116V616H1299V271H1116V0ZM360 616H720V1094L360 616Z" />
<glyph unicode="5" horiz-adv-x="1200" d="M60 151L261 474Q293 404 365 360T518 315Q581 315 630 342T707 419T735 530Q735 593 707 642T628 719T514 747Q460 747 413 726T327 663L138 770L205 1500H1037V1155H566L539 912Q595 924 655 924Q793 924 903 866T1076
705T1140 473Q1140 331 1064 217T856 37T557 -30Q421 -30 291 17T60 151Z" />
<glyph unicode="6" horiz-adv-x="1231" d="M617 -30Q447 -30 322 45T129 256T60 577Q60 722 104 854T234 1104T447 1320T739 1500L920 1249Q810 1193 718 1125T554 982T436 825Q489 876 561 903T723 930Q855 930 956 873T1114 714T1171 481Q1171 332 1100 217T903
36T617 -30ZM614 315Q657 315 691 341T745 411T766 508Q766 561 747 602T694 667T617 691Q574 691 540 667T485 600T465 503Q465 450 485 408T539 340T614 315Z" />
<glyph unicode="7" horiz-adv-x="1079" d="M545 0H116L592 1155H20V1500H1059L1058 1246L545 0Z" />
<glyph unicode="8" horiz-adv-x="1185" d="M592 -30Q429 -30 307 23T118 172T50 398Q50 541 133 644T360 794Q239 838 171 928T103 1142Q103 1260 163 1347T334 1482T592 1530Q740 1530 850 1482T1020 1347T1081 1142Q1081 1019 1013 929T824 794Q969 748 1052
645T1135 399Q1135 271 1067 174T877 24T592 -30ZM592 968Q639 968 667 1006T696 1106Q696 1168 668 1206T592 1245Q546 1245 517 1207T488 1106Q488 1045 517 1007T592 968ZM592 275Q636 275 669 297T721 361T740 455Q740 509 722 550T670 613T592 636Q548 636
515 614T464 550T445 455Q445 402 463 361T515 298T592 275Z" />
<glyph unicode="9" horiz-adv-x="1231" d="M492 0L312 251Q423 307 515 375T678 519T795 675Q742 624 670 597T508 570Q376 570 275 627T117 786T60 1019Q60 1168 132 1283T329 1464T615 1530Q785 1530 910 1455T1103 1244T1171 923Q1171 778 1127 646T997 396T784
180T492 0ZM614 809Q658 809 692 833T746 901T766 997Q766 1050 747 1092T694 1160T618 1185Q576 1185 542 1160T487 1090T466 992Q466 940 485 899T538 833T614 809Z" />
<glyph unicode=":" horiz-adv-x="500" d="M249 658Q182 658 136 705T90 819Q90 886 136 933T249 980Q317 980 363 933T410 819Q410 752 364 705T249 658ZM249 -20Q182 -20 136 27T90 141Q90 208 136 255T249 302Q317 302 363 255T410 141Q410 74 364 27T249 -20Z" />
<glyph unicode=";" horiz-adv-x="490" d="M259 659Q192 659 146 705T100 819Q100 886 146 933T259 980Q327 980 373 933T420 819Q420 752 374 706T259 659ZM300 -240H60L130 200H420L300 -240Z" />
<glyph unicode="&lt;" horiz-adv-x="1027" d="M927 0L20 431V588L927 1020V719L412 509L927 300V0Z" />
<glyph unicode="=" horiz-adv-x="1155" d="M1055 608H100V888H1055V608ZM1055 121H100V401H1055V121Z" />
<glyph unicode="&gt;" horiz-adv-x="1027" d="M100 0V300L615 509L100 719V1020L1007 588V431L100 0Z" />
<glyph unicode="?" horiz-adv-x="943" d="M183 1092L50 1390Q244 1530 480 1530Q616 1530 715 1485T869 1356T923 1155Q923 1080 901 1024T840 921T747 823Q699 776 653 724T578 599T548 420H235Q235 559 265 650T339 801T424 906Q462 948 489 986T517 1075Q517
1134 478 1170T375 1207Q317 1207 266 1176T183 1092ZM392 -20Q320 -20 276 24T232 140Q232 212 276 256T392 300Q464 300 508 256T552 140Q552 68 508 24T392 -20Z" />
<glyph unicode="@" horiz-adv-x="1879" d="M889 64Q765 64 667 125T513 292T456 532Q456 676 520 792T694 977T940 1045Q1038 1045 1119 1008T1255 899L1262 984H1446Q1440 940 1432 877T1416 744T1402 605T1391 481T1387 394Q1387 330 1413 286T1483 242Q1528
242 1566 292T1626 424T1649 606Q1649 789 1569 926T1345 1141T1011 1218Q854 1218 720 1165T485 1017T330 794T274 516Q274 343 347 211T551 5T852 -69Q1054 -69 1250 36L1321 -157Q1079 -266 837 -266Q602 -266 422 -167T141 109T40 516Q40 710 112 875T314 1162T619
1351T1002 1419Q1192 1419 1349 1362T1620 1198T1797 947T1859 625Q1859 456 1813 330T1685 133T1492 62Q1404 62 1337 107T1234 236Q1170 153 1081 109T889 64ZM939 264Q1008 264 1067 296T1166 386T1220 518L1226 585Q1226 663 1197 722T1115 813T992 846Q912
846 848 804T747 689T709 526Q709 408 772 336T939 264Z" />
<glyph unicode="A" horiz-adv-x="1606" d="M425 0H10L596 1500H1011L1596 0H1181L1084 267H522L425 0ZM648 612H959L803 1040L648 612Z" />
<glyph unicode="B" horiz-adv-x="1340" d="M100 0V1500H671Q930 1500 1071 1395T1212 1098Q1212 991 1164 908T1034 777Q1156 737 1223 647T1290 426Q1290 296 1227 201T1048 53T774 0H100ZM496 895H644Q729 895 775 929T822 1028Q822 1087 775 1121T644 1155H496V895ZM496
345H671Q739 345 787 360T860 405T885 477Q885 519 863 547T799 590T695 605H496V345Z" />
<glyph unicode="C" horiz-adv-x="1481" d="M1421 186Q1315 84 1171 27T856 -30Q685 -30 540 28T287 192T120 440T60 750Q60 918 119 1060T286 1307T539 1471T856 1530Q1025 1530 1168 1473T1418 1313L1142 1035Q1090 1105 1015 1145T850 1185Q768 1185 698 1152T576
1060T494 922T465 751Q465 658 494 579T575 441T698 348T850 315Q939 315 1014 355T1141 465L1421 186Z" />
<glyph unicode="D" horiz-adv-x="1580" d="M100 0V1500H631Q900 1500 1099 1407T1409 1146T1520 750Q1520 524 1410 355T1100 93T631 0H100ZM496 345H644Q796 345 901 392T1060 529T1115 750Q1115 881 1061 971T901 1108T644 1155H496V345Z" />
<glyph unicode="E" horiz-adv-x="1200" d="M100 0V1500H1100V1155H496V923H1060V578H496V345H1110V0H100Z" />
<glyph unicode="F" horiz-adv-x="1150" d="M100 0V1500H1060V1155H496V923H1020V578H496V0H100Z" />
<glyph unicode="G" horiz-adv-x="1632" d="M1149 1067Q1095 1123 1017 1154T849 1185Q762 1185 692 1156T571 1070T493 936T465 760Q465 660 494 578T577 438T705 347T871 315Q939 315 995 333T1094 386T1167 472T1213 590H854V890H1561L1572 739Q1572 568 1521
427T1374 183T1148 26T855 -30Q687 -30 543 29T290 195T121 445T60 754Q60 918 119 1059T284 1306T531 1471T838 1530Q993 1530 1140 1476T1404 1322L1149 1067Z" />
<glyph unicode="H" horiz-adv-x="1515" d="M496 0H100V1500H496V910H1019V1500H1415V0H1019V565H496V0Z" />
<glyph unicode="I" horiz-adv-x="596" d="M496 1500H100V0H496V1500Z" />
<glyph unicode="J" horiz-adv-x="581" d="M-230 -360L-250 -15Q-79 -15 3 64T85 306V1500H481V306Q481 66 410 -80T183 -293T-230 -360Z" />
<glyph unicode="K" horiz-adv-x="1543" d="M496 0H100V1500H496V873Q549 951 597 1017T678 1124L977 1500H1443L890 805L1543 0H1032L637 487L496 309V0Z" />
<glyph unicode="L" horiz-adv-x="1140" d="M1120 0H100V1500H496V345H1120V0Z" />
<glyph unicode="M" horiz-adv-x="1865" d="M1765 0H1369V932L1078 252H786L496 930V0H100V1500H600L932 698L1265 1500H1765V0Z" />
<glyph unicode="N" horiz-adv-x="1602" d="M1502 0H1036L496 890V0H100V1500H566L1106 607V1500H1502V0Z" />
<glyph unicode="O" horiz-adv-x="1710" d="M856 -30Q684 -30 539 28T286 192T119 440T60 750Q60 918 119 1060T285 1307T538 1471T857 1530Q1029 1530 1174 1472T1425 1308T1591 1060T1650 750Q1650 582 1591 440T1426 193T1174 29T856 -30ZM856 315Q939 315 1010
348T1133 440T1215 579T1245 750Q1245 842 1216 921T1134 1059T1010 1152T856 1185Q773 1185 702 1152T577 1060T495 921T465 750Q465 658 494 579T577 441T701 348T856 315Z" />
<glyph unicode="P" horiz-adv-x="1376" d="M100 0V1500H647Q840 1500 981 1436T1199 1253T1276 971Q1276 808 1200 689T983 504T652 439H496V0H100ZM496 784H608Q736 784 803 832T871 971Q871 1060 804 1107T608 1155H496V784Z" />
<glyph unicode="Q" horiz-adv-x="1718" d="M1572 -265Q1431 -233 1322 -201T1115 -127T903 -29H856Q684 -29 539 29T286 193T119 440T60 750Q60 918 119 1060T285 1307T538 1471T857 1530Q1029 1530 1174 1472T1425 1308T1591 1060T1650 750Q1650 606 1606 480T1480
253T1287 85Q1347 74 1405 66T1526 52T1658 44L1572 -265ZM856 315Q939 315 1010 348T1133 440T1215 579T1245 750Q1245 842 1216 921T1134 1059T1010 1152T856 1185Q773 1185 702 1152T577 1060T495 921T465 750Q465 658 494 579T577 441T701 348T856 315Z" />
<glyph unicode="R" horiz-adv-x="1418" d="M1398 0H960L674 496H496V0H100V1500H704Q899 1500 1036 1441T1245 1270T1318 998Q1318 849 1254 741T1069 571L1398 0ZM496 801H673Q792 801 852 845T913 978Q913 1066 853 1110T673 1155H496V801Z" />
<glyph unicode="S" horiz-adv-x="1252" d="M30 172L216 474Q289 417 352 381T476 329T600 312Q662 312 706 326T773 368T797 434Q797 482 763 516T673 577T549 631Q477 660 402 695T264 782T162 906T123 1086Q123 1226 193 1325T386 1477T664 1530Q777 1530 903
1500T1158 1406L1004 1088Q932 1132 847 1158T690 1185Q641 1185 605 1172T548 1135T528 1077Q528 1033 562 1000T652 938T774 881Q846 850 921 812T1060 722T1163 598T1202 424Q1202 289 1129 187T924 27T618 -30Q456 -30 306 22T30 172Z" />
<glyph unicode="T" horiz-adv-x="1248" d="M822 0H426V1155H10V1500H1238V1155H822V0Z" />
<glyph unicode="U" horiz-adv-x="1544" d="M1444 1500V677Q1444 457 1364 299T1133 55T772 -30Q563 -30 412 55T181 298T100 677V1500H496V731Q496 588 525 496T616 360T772 315Q867 315 928 359T1018 496T1048 731V1500H1444Z" />
<glyph unicode="V" horiz-adv-x="1606" d="M1011 0H596L10 1500H425L803 460L1181 1500H1596L1011 0Z" />
<glyph unicode="W" horiz-adv-x="2249" d="M1753 0H1382L1126 855L869 0H498L10 1500H426L683 638L940 1500H1311L1567 640L1823 1500H2239L1753 0Z" />
<glyph unicode="X" horiz-adv-x="1637" d="M1627 0H1128L804 471L479 0H10L578 764L55 1500H554L831 1095L1096 1500H1584L1058 778L1627 0Z" />
<glyph unicode="Y" horiz-adv-x="1532" d="M964 0H568V641L10 1500H491L764 994L1041 1500H1522L964 640V0Z" />
<glyph unicode="Z" horiz-adv-x="1282" d="M1222 0H60V290L689 1155H100V1500H1212V1200L590 345H1222V0Z" />
<glyph unicode="[" horiz-adv-x="690" d="M670 -289H100V1540H670V1250H420V5H670V-289Z" />
<glyph unicode="\" horiz-adv-x="1005" d="M995 -20H649L10 1520H356L995 -20Z" />
<glyph unicode="]" horiz-adv-x="690" d="M590 -289H20V1H270V1250H20V1540H590V-289Z" />
<glyph unicode="^" horiz-adv-x="1089" d="M1069 700H791L545 1215L298 700H20L446 1500H643L1069 700Z" />
<glyph unicode="_" horiz-adv-x="1303" d="M1203 0H100V290H1203V0Z" />
<glyph unicode="`" horiz-adv-x="531" d="M491 1160H231L30 1500H360L491 1160Z" />
<glyph unicode="a" horiz-adv-x="1129" d="M1049 0H726L708 110Q653 47 575 14T405 -20Q302 -20 222 19T96 128T50 287Q50 381 100 452T238 563T441 604Q503 604 563 592T680 555V571Q680 617 651 652T569 707T449 727Q381 727 318 707T204 650L110 921Q220 970
328 995T535 1020Q692 1020 807 960T986 789T1049 528V0ZM490 249Q535 249 578 269T650 320T678 383V384Q642 405 598 416T510 428Q447 428 411 405T374 340Q374 314 389 293T430 261T490 249Z" />
<glyph unicode="b" horiz-adv-x="1265" d="M423 0H100V1500H469V900Q528 957 603 988T766 1020Q897 1020 998 953T1157 768T1215 500Q1215 350 1157 233T998 48T766 -20Q668 -20 585 19T441 129L423 0ZM653 310Q707 310 748 334T813 402T837 502Q837 556 814 598T749
665T653 690Q603 690 563 668T498 608T469 520V483Q473 432 497 393T562 332T653 310Z" />
<glyph unicode="c" horiz-adv-x="1063" d="M1023 169Q950 81 840 31T595 -20Q438 -20 315 47T121 232T50 500Q50 650 120 767T314 952T595 1020Q729 1020 838 970T1021 834L806 607Q775 645 726 667T622 690Q566 690 522 666T453 600T428 502Q428 446 453 403T522
335T622 310Q676 310 726 332T806 393L1023 169Z" />
<glyph unicode="d" horiz-adv-x="1266" d="M1166 0H843L824 130Q764 60 681 20T499 -20Q369 -20 268 47T108 232T50 500Q50 650 108 767T267 952T499 1020Q587 1020 663 989T797 900V1500H1166V0ZM613 310Q664 310 705 332T772 393T797 483V520Q797 570 772 608T706
668T613 690Q560 690 518 666T452 598T428 500Q428 445 452 402T518 335T613 310Z" />
<glyph unicode="e" horiz-adv-x="1166" d="M1051 105Q864 -20 645 -20Q476 -20 342 50T129 243T50 517Q50 661 120 774T310 954T583 1020Q742 1020 862 947T1049 744T1116 442V410H446Q464 371 496 340T576 289T688 270Q829 270 955 360L1051 105ZM429 560H778Q773
607 750 643T688 699T602 720Q554 720 518 698T460 640T429 560Z" />
<glyph unicode="f" horiz-adv-x="985" d="M554 0H185V671H10V1000H185V1116Q185 1235 244 1328T404 1476T636 1530Q718 1530 804 1506T975 1430L836 1144Q805 1173 769 1186T698 1200Q640 1200 597 1161T554 1044V1000H846V671H554V0Z" />
<glyph unicode="g" horiz-adv-x="1255" d="M499 -20Q369 -20 268 47T108 232T50 500Q50 651 108 768T267 952T499 1020Q598 1020 681 980T825 869L842 1000H1165V29Q1165 -135 1088 -259T873 -451T551 -520Q300 -520 84 -369L229 -66Q359 -190 522 -190Q602 -190
663 -160T760 -77T796 45V100Q738 43 663 12T499 -20ZM613 310Q664 310 705 331T771 392T796 481V522Q796 571 771 609T705 668T613 690Q560 690 518 666T452 598T428 500Q428 445 452 402T518 335T613 310Z" />
<glyph unicode="h" horiz-adv-x="1219" d="M100 0V1500H469V904Q574 1020 752 1020Q934 1020 1036 905T1139 583V0H770V482Q770 582 732 636T622 690Q549 690 509 636T469 482V0H100Z" />
<glyph unicode="i" horiz-adv-x="569" d="M284 1188Q217 1188 171 1235T125 1349Q125 1416 171 1463T284 1510Q352 1510 398 1463T445 1349Q445 1282 399 1235T284 1188ZM469 0H100V1000H469V0Z" />
<glyph unicode="j" horiz-adv-x="553" d="M278 1188Q211 1188 165 1235T119 1349Q119 1416 165 1463T278 1510Q346 1510 392 1463T439 1349Q439 1282 393 1235T278 1188ZM-169 -499V-209Q-153 -212 -139 -213T-113 -214Q-13 -214 40 -155T94 15V1000H463V-2Q463
-261 353 -390T23 -520Q-20 -520 -68 -515T-169 -499Z" />
<glyph unicode="k" horiz-adv-x="1282" d="M469 0H100V1500H469V667L580 801L770 1000H1232L799 547L1272 0H797L546 328L469 277V0Z" />
<glyph unicode="l" horiz-adv-x="596" d="M496 0H100V1540H496V0Z" />
<glyph unicode="m" horiz-adv-x="1837" d="M1757 0H1388V482Q1388 582 1353 636T1253 690Q1186 690 1150 636T1113 482V0H744V482Q744 582 709 636T609 690Q542 690 506 636T469 482V0H100V1000H392L404 844Q455 930 537 975T729 1020Q839 1020 921 976T1051 849Q1103
933 1184 976T1373 1020Q1554 1020 1655 905T1757 583V0Z" />
<glyph unicode="n" horiz-adv-x="1219" d="M1139 0H770V482Q770 582 732 636T622 690Q549 690 509 636T469 482V0H100V1000H392L404 841Q457 929 542 974T743 1020Q929 1020 1034 905T1139 583V0Z" />
<glyph unicode="o" horiz-adv-x="1188" d="M596 -20Q438 -20 315 47T121 232T50 500Q50 650 120 767T314 952T596 1020Q753 1020 875 953T1068 768T1138 500Q1138 350 1068 233T876 48T596 -20ZM594 310Q642 310 679 334T738 402T760 502Q760 556 739 598T680
665T594 690Q546 690 509 666T450 599T428 502Q428 446 449 403T508 335T594 310Z" />
<glyph unicode="p" horiz-adv-x="1266" d="M470 -500H100V1000H423L442 870Q502 941 585 980T767 1020Q898 1020 999 953T1158 768T1216 500Q1216 350 1158 233T999 48T767 -20Q679 -20 604 11T470 100V-500ZM654 310Q708 310 749 334T814 402T838 500Q838 555
815 598T750 665T654 690Q604 690 564 668T499 607T470 517V480Q474 431 498 393T563 332T654 310Z" />
<glyph unicode="q" horiz-adv-x="1266" d="M1166 -500H797V100Q739 43 663 12T499 -20Q369 -20 268 47T108 232T50 500Q50 650 108 767T267 952T499 1020Q597 1020 680 981T824 870L843 1000H1166V-500ZM613 310Q664 310 704 332T768 392T797 480V517Q793 568
769 607T704 668T613 690Q560 690 518 666T452 598T428 500Q428 445 452 402T518 335T613 310Z" />
<glyph unicode="r" horiz-adv-x="894" d="M469 0H100V1000H420L432 843Q482 927 562 973T745 1020Q780 1020 816 1015T889 998L843 666Q770 690 707 690Q634 690 581 660T498 574T469 443V0Z" />
<glyph unicode="s" horiz-adv-x="910" d="M30 85L106 389Q133 357 186 327T303 279T419 260Q459 260 480 272T501 306Q501 329 481 345T428 376T351 405Q287 428 217 461T97 553T48 710Q48 805 98 874T241 982T459 1020Q668 1020 880 915L777 634Q745 662 693
687T587 728T492 744Q459 744 443 733T426 701Q426 679 445 663T498 633T572 604Q639 581 710 548T830 456T880 298Q880 201 827 130T676 19T445 -20Q223 -20 30 85Z" />
<glyph unicode="t" horiz-adv-x="908" d="M878 28Q752 -20 635 -20Q508 -20 411 33T260 180T205 399V671H30V1000H225V1250H574V1000H837V671H574V466Q574 389 617 350T718 310Q777 310 832 348L878 28Z" />
<glyph unicode="u" horiz-adv-x="1219" d="M1119 0H827L815 159Q763 71 677 26T476 -20Q290 -20 185 96T80 417V1000H449V518Q449 418 487 364T597 310Q670 310 710 364T750 518V1000H1119V0Z" />
<glyph unicode="v" horiz-adv-x="1197" d="M1177 1000L777 0H420L20 1000H414L599 368L784 1000H1177Z" />
<glyph unicode="w" horiz-adv-x="1742" d="M1407 0H987L871 519L755 0H335L10 1000H400L539 371L713 1000H1029L1203 367L1342 1000H1732L1407 0Z" />
<glyph unicode="x" horiz-adv-x="1393" d="M528 0H10L438 508L25 1000H543L697 744L850 1000H1368L955 510L1383 0H865L696 281L528 0Z" />
<glyph unicode="y" horiz-adv-x="1369" d="M737 -500H347L553 -3L30 1000H450L727 416L969 1000H1359L737 -500Z" />
<glyph unicode="z" horiz-adv-x="1148" d="M1098 0H50V180L469 670H75V1000H1056V850L612 330H1098V0Z" />
<glyph unicode="{" horiz-adv-x="684" d="M664 -289Q427 -289 306 -201T184 60V339Q184 425 137 487T20 555V696Q89 701 136 763T184 912V1191Q184 1364 305 1452T664 1540V1249Q579 1249 542 1218T504 1112V902Q504 809 458 737T332 626Q412 589 458 516T504
349V139Q504 66 541 34T664 2V-289Z" />
<glyph unicode="|" horiz-adv-x="520" d="M420 -250H100V1540H420V-250Z" />
<glyph unicode="}" horiz-adv-x="684" d="M20 -289V2Q106 2 143 34T180 139V349Q180 442 226 515T352 626Q272 664 226 736T180 902V1112Q180 1186 143 1218T20 1250V1540Q257 1540 378 1452T500 1191V912Q500 826 547 764T664 696V555Q595 550 548 488T500 339V60Q500
-112 379 -200T20 -289Z" />
<glyph unicode="~" horiz-adv-x="1242" d="M1142 538Q1072 463 1004 427T863 390Q802 390 744 411T627 459Q569 485 510 507T386 529Q244 529 100 385V647Q247 791 388 791Q452 791 511 769T629 721Q687 695 745 674T865 652Q1006 652 1142 800V538Z" />
<glyph unicode="&#xa0;" horiz-adv-x="440" />
<glyph unicode="&#xa1;" horiz-adv-x="498" d="M248 710Q181 710 136 755T90 865Q90 930 135 975T248 1020Q316 1020 362 975T408 865Q408 801 362 756T248 710ZM398 -500H98L143 580H353L398 -500Z" />
<glyph unicode="&#xa2;" horiz-adv-x="1063" d="M1023 309Q966 240 885 193T705 129L715 -60H475L485 129Q357 152 259 222T105 400T50 640Q50 772 105 879T258 1058T485 1151L475 1340H715L705 1151Q803 1134 883 1088T1021 974L806 747Q775 785 726 807T622
830Q566 830 522 806T453 740T428 641Q428 586 453 543T522 475T622 450Q676 450 726 472T806 533L1023 309Z" />
<glyph unicode="&#xa3;" horiz-adv-x="1253" d="M966 650H597Q601 632 602 615T603 576Q603 506 586 445T533 330H1120V0H70V200Q185 244 257 335T329 559Q329 582 327 605T320 650H70V850H261Q243 906 229 963T215 1084Q215 1211 275 1309T442 1464T685 1520Q842
1520 973 1444T1183 1231L942 1054Q908 1119 857 1155T746 1191Q695 1191 656 1165T594 1094T571 990Q571 954 573 919T579 850H966V650Z" />
<glyph unicode="&#xa4;" horiz-adv-x="1228" d="M1157 379L1017 239L859 403Q807 371 745 354T613 336Q544 336 483 353T369 402L211 239L70 380L234 538Q203 590 186 651T168 783Q168 852 185 913T233 1027L70 1185L211 1325L369 1163Q421 1195 483 1212T614
1230Q684 1230 745 1213T858 1163L1017 1327L1158 1186L994 1027Q1026 975 1043 914T1060 784Q1060 714 1043 652T993 538L1157 379ZM614 576Q668 576 710 602T776 676T800 783Q800 843 776 890T710 963T614 990Q561 990 519 964T453 890T428 783Q428 723 452 677T518
603T614 576Z" />
<glyph unicode="&#xa5;" horiz-adv-x="1364" d="M871 0H495V245H228V395H495V496H228V646H492L20 1500H450L681 945L914 1500H1344L878 646H1135V496H871V395H1135V245H871V0Z" />
<glyph unicode="&#xa6;" horiz-adv-x="520" d="M420 820H100V1540H420V820ZM420 -250H100V470H420V-250Z" />
<glyph unicode="&#xa7;" horiz-adv-x="1077" d="M101 17L225 295Q283 255 360 229T496 202Q541 202 565 217T590 261Q590 288 567 308T506 346T420 382Q349 410 275 447T151 543T100 696Q100 774 138 841T245 961Q210 987 183 1019T141 1093T125 1185Q125 1285
184 1363T345 1485T580 1530Q788 1530 976 1423L852 1145Q794 1185 717 1211T581 1238Q536 1238 511 1223T486 1179Q486 1152 509 1132T572 1094T657 1058Q728 1030 802 993T926 897T977 744Q977 666 939 599T831 479Q866 453 893 421T936 347T952 255Q952 155
893 77T731 -45T496 -90Q289 -90 101 17ZM681 562Q690 580 695 599T701 637Q701 685 667 727T565 808T395 878Q386 860 381 841T376 803Q376 755 410 713T512 633T681 562Z" />
<glyph unicode="&#xa8;" horiz-adv-x="929" d="M699 1189Q636 1189 598 1227T559 1329Q559 1392 597 1430T699 1469Q762 1469 800 1431T839 1329Q839 1266 801 1228T699 1189ZM230 1189Q167 1189 129 1227T90 1329Q90 1392 128 1430T230 1469Q293 1469 331 1431T370
1329Q370 1266 332 1228T230 1189Z" />
<glyph unicode="&#xa9;" horiz-adv-x="1239" d="M620 -104Q447 -104 311 -27T98 186T20 495Q20 668 97 803T311 1015T620 1093Q793 1093 928 1016T1141 803T1219 495Q1219 322 1142 187T929 -26T620 -104ZM620 67Q743 67 839 122T990 275T1045 494Q1045 617 990
714T838 866T620 922Q498 922 402 867T250 715T194 494Q194 371 249 275T401 123T620 67ZM887 260Q788 166 637 166Q537 166 459 208T337 325T293 495Q293 590 337 664T459 781T637 824Q788 824 887 730L774 610Q752 637 719 651T648 666Q576 666 529 618T482 495Q482
421 529 373T648 324Q686 324 719 338T774 380L887 260Z" />
<glyph unicode="&#xaa;" horiz-adv-x="803" d="M703 810H513L505 892Q471 847 419 824T301 800Q192 800 121 859T50 1007Q50 1072 88 1123T191 1205T337 1235Q377 1235 417 1227T496 1204V1214Q496 1267 458 1296T351 1325Q304 1325 258 1310T173 1268L87 1430Q215
1520 378 1520Q529 1520 616 1448T703 1250V810ZM358 964Q394 964 425 978T476 1016T496 1066V1091Q448 1123 387 1123Q332 1123 297 1099T261 1037Q261 1005 288 985T358 964Z" />
<glyph unicode="&#xab;" horiz-adv-x="1246" d="M682 111H343L20 497L343 882H682L340 496L682 111ZM1146 111H807L484 497L807 882H1146L804 496L1146 111Z" />
<glyph unicode="&#xac;" horiz-adv-x="1029" d="M929 52H609V337H100V627H929V52Z" />
<glyph unicode="&#xad;" horiz-adv-x="1106" d="M1006 337H100V627H1006V337Z" />
<glyph unicode="&#xae;" horiz-adv-x="1239" d="M620 424Q447 424 311 501T98 714T20 1023Q20 1196 97 1331T311 1543T620 1621Q793 1621 928 1544T1141 1331T1219 1023Q1219 850 1142 715T929 502T620 424ZM620 595Q743 595 839 650T990 802T1045 1022Q1045 1146
990 1242T838 1395T620 1451Q498 1451 402 1396T250 1243T194 1022Q194 899 249 803T401 651T620 595ZM890 700H714L600 939H543V703H383V1345H651Q755 1345 816 1290T878 1142Q878 1077 847 1030T759 959L890 700ZM543 1069H612Q661 1069 687 1088T713 1144Q713
1179 688 1197T612 1215H543V1069Z" />
<glyph unicode="&#xaf;" horiz-adv-x="898" d="M798 1225H100V1430H798V1225Z" />
<glyph unicode="&#xb0;" horiz-adv-x="660" d="M330 900Q240 900 170 940T60 1050T20 1210Q20 1300 60 1370T170 1480T330 1520Q419 1520 489 1480T599 1370T640 1210Q640 1120 600 1050T489 940T330 900ZM330 1090Q377 1090 408 1124T440 1210Q440 1262 409 1296T330
1330Q281 1330 251 1296T220 1210Q220 1158 250 1124T330 1090Z" />
<glyph unicode="&#xb1;" horiz-adv-x="1106" d="M713 332H393V617H100V907H393V1191H713V907H1006V617H713V332ZM1006 0H100V280H1006V0Z" />
<glyph unicode="&#xb2;" horiz-adv-x="705" d="M615 790H148V897Q254 995 313 1060T398 1171T423 1258Q423 1304 397 1331T327 1359Q290 1359 253 1339T192 1287L100 1407Q147 1459 219 1489T365 1520Q474 1520 544 1455T614 1287Q614 1231 591 1174T522 1062T409
953H615V790Z" />
<glyph unicode="&#xb3;" horiz-adv-x="671" d="M90 862L159 999Q233 951 294 951Q335 951 361 972T388 1025Q388 1062 353 1082T256 1102H221V1229H256Q306 1229 340 1250T374 1301Q374 1327 352 1343T296 1359Q248 1359 179 1316L100 1445Q189 1520 314 1520Q416
1520 482 1469T548 1336Q548 1281 518 1238T436 1170Q504 1149 542 1104T581 997Q581 909 505 850T313 790Q187 790 90 862Z" />
<glyph unicode="&#xb4;" horiz-adv-x="531" d="M301 1160H40L172 1500H501L301 1160Z" />
<glyph unicode="&#xb5;" horiz-adv-x="1302" d="M1270 -20Q1150 -20 1064 12T925 109Q873 48 800 14T643 -20Q527 -20 448 47V-500H100V1000H469V518Q469 424 510 367T620 310Q688 310 729 367T770 518V1000H1139V383Q1139 247 1292 247L1270 -20Z" />
<glyph unicode="&#xb6;" horiz-adv-x="1339" d="M1239 -150H989V1250H859V-150H609V640Q454 640 335 697T148 854T80 1084Q80 1210 145 1303T328 1448T605 1500H1239V-150Z" />
<glyph unicode="&#xb7;" horiz-adv-x="500" d="M250 370Q178 370 134 414T90 530Q90 602 134 646T250 690Q322 690 366 646T410 530Q410 458 366 414T250 370Z" />
<glyph unicode="&#xb8;" horiz-adv-x="513" d="M70 -395L118 -263Q153 -282 191 -282Q229 -282 252 -261T276 -206Q276 -174 253 -154T178 -134Q173 -134 167 -134T154 -135L209 7H331L280 -102Q355 -110 399 -150T443 -255Q443 -331 382 -381T226 -432Q149 -432
70 -395Z" />
<glyph unicode="&#xb9;" horiz-adv-x="491" d="M391 780H191V1314L79 1273L20 1423L231 1500H391V780Z" />
<glyph unicode="&#xba;" horiz-adv-x="770" d="M386 800Q281 800 198 847T68 975T20 1160Q20 1264 67 1345T198 1473T387 1520Q492 1520 574 1474T703 1346T750 1161Q750 1056 703 975T574 847T386 800ZM386 985Q432 985 468 1007T524 1070T545 1160Q545 1211
525 1250T468 1312T386 1335Q340 1335 304 1313T246 1251T225 1160Q225 1110 246 1070T303 1008T386 985Z" />
<glyph unicode="&#xbb;" horiz-adv-x="1246" d="M439 111H100L442 496L100 882H439L762 497L439 111ZM903 111H564L907 496L564 882H903L1226 497L903 111Z" />
<glyph unicode="&#xbc;" horiz-adv-x="1656" d="M435 0H211L1236 1540H1453L435 0ZM441 780H241V1314L129 1273L70 1423L281 1500H441V780ZM1498 0H1308V130H972V274L1308 720H1498V295H1586V130H1498V0ZM1135 295H1308V525L1135 295Z" />
<glyph unicode="&#xbd;" horiz-adv-x="1698" d="M435 0H211L1236 1540H1453L435 0ZM441 780H241V1314L129 1273L70 1423L281 1500H441V780ZM1628 0H1148V110Q1259 213 1320 278T1406 387T1431 473Q1431 520 1407 547T1342 574Q1276 574 1228 507L1134 631Q1180
684 1246 712T1380 740Q1480 740 1553 679T1627 508Q1627 446 1601 387T1528 273T1416 167H1628V0Z" />
<glyph unicode="&#xbe;" horiz-adv-x="1648" d="M427 0H203L1228 1540H1445L427 0ZM70 853L140 991Q214 943 272 943Q312 943 337 964T362 1018Q362 1055 329 1075T236 1096H203V1225H236Q285 1225 316 1245T348 1297Q348 1323 327 1339T274 1356Q228 1356 160
1313L80 1444Q172 1520 293 1520Q394 1520 459 1468T525 1335Q525 1280 494 1235T410 1164Q479 1142 518 1096T558 987Q558 898 482 839T293 780Q168 780 70 853ZM1490 0H1300V130H964V274L1300 720H1490V295H1578V130H1490V0ZM1127 295H1300V525L1127 295Z" />
<glyph unicode="&#xbf;" horiz-adv-x="943" d="M581 1030Q653 1030 697 986T741 870Q741 798 697 754T581 710Q509 710 465 754T421 870Q421 942 465 986T581 1030ZM790 -81L923 -380Q729 -520 493 -520Q357 -520 258 -475T104 -347T50 -147Q50 -64 75 -6T140
98T226 187Q275 234 320 286T395 411T425 590H738Q738 451 708 360T634 209T549 104Q511 62 484 24T456 -65Q456 -124 495 -160T598 -197Q656 -197 707 -166T790 -81Z" />
<glyph unicode="&#xc0;" horiz-adv-x="1606" d="M934 1660H673L473 2000H802L934 1660ZM425 0H10L596 1500H1011L1596 0H1181L1084 267H522L425 0ZM648 612H959L803 1040L648 612Z" />
<glyph unicode="&#xc1;" horiz-adv-x="1606" d="M943 1660H683L814 2000H1144L943 1660ZM425 0H10L596 1500H1011L1596 0H1181L1084 267H522L425 0ZM648 612H959L803 1040L648 612Z" />
<glyph unicode="&#xc2;" horiz-adv-x="1606" d="M1175 1660H904L802 1852L701 1660H431L656 2000H950L1175 1660ZM425 0H10L596 1500H1011L1596 0H1181L1084 267H522L425 0ZM648 612H959L803 1040L648 612Z" />
<glyph unicode="&#xc3;" horiz-adv-x="1606" d="M1206 1981Q1206 1836 1148 1762T974 1688Q904 1688 859 1710T778 1758Q747 1781 716 1797T643 1813Q535 1813 529 1696H401Q401 1990 638 1990Q712 1990 760 1967T846 1918Q878 1896 908 1881T976 1865Q1072 1865
1078 1981H1206ZM425 0H10L596 1500H1011L1596 0H1181L1084 267H522L425 0ZM648 612H959L803 1040L648 612Z" />
<glyph unicode="&#xc4;" horiz-adv-x="1606" d="M425 0H10L596 1500H1011L1596 0H1181L1084 267H522L425 0ZM648 612H959L803 1040L648 612ZM1038 1689Q975 1689 937 1727T898 1829Q898 1892 936 1930T1038 1969Q1101 1969 1139 1931T1178 1829Q1178 1766 1140
1728T1038 1689ZM569 1689Q506 1689 468 1727T429 1829Q429 1892 467 1930T569 1969Q632 1969 670 1931T709 1829Q709 1766 671 1728T569 1689Z" />
<glyph unicode="&#xc5;" horiz-adv-x="1606" d="M803 1570Q700 1570 637 1630T573 1790Q573 1889 636 1949T803 2010Q907 2010 970 1950T1033 1790Q1033 1691 970 1631T803 1570ZM803 1709Q839 1709 861 1731T883 1790Q883 1826 861 1848T803 1870Q767 1870 745
1848T723 1790Q723 1754 745 1732T803 1709ZM425 0H10L596 1500H1011L1596 0H1181L1084 267H522L425 0ZM648 612H959L803 1040L648 612Z" />
<glyph unicode="&#xc6;" horiz-adv-x="2276" d="M2226 0H1219L1183 267H596L459 0H10L812 1500H2022L2069 1155H1460L1492 922H2071L2118 577H1538L1570 345H2179L2226 0ZM774 612H1136L1060 1168H1055L774 612Z" />
<glyph unicode="&#xc7;" horiz-adv-x="1481" d="M1421 186Q1327 96 1203 41T933 -27L898 -102Q973 -110 1017 -150T1061 -255Q1061 -331 1000 -381T844 -432Q767 -432 688 -395L736 -263Q771 -282 809 -282Q847 -282 870 -261T894 -206Q894 -174 871 -154T796
-134Q791 -134 785 -134T772 -135L813 -29Q650 -21 513 40T274 205T116 449T60 750Q60 918 119 1060T286 1307T539 1471T856 1530Q1025 1530 1168 1473T1418 1313L1142 1035Q1090 1105 1015 1145T850 1185Q768 1185 698 1152T576 1060T494 922T465 751Q465 658
494 579T575 441T698 348T850 315Q939 315 1014 355T1141 465L1421 186Z" />
<glyph unicode="&#xc8;" horiz-adv-x="1200" d="M767 1660H506L306 2000H635L767 1660ZM100 0V1500H1100V1155H496V923H1060V578H496V345H1110V0H100Z" />
<glyph unicode="&#xc9;" horiz-adv-x="1200" d="M706 1660H446L577 2000H907L706 1660ZM100 0V1500H1100V1155H496V923H1060V578H496V345H1110V0H100Z" />
<glyph unicode="&#xca;" horiz-adv-x="1200" d="M977 1660H707L605 1852L504 1660H234L459 2000H752L977 1660ZM100 0V1500H1100V1155H496V923H1060V578H496V345H1110V0H100Z" />
<glyph unicode="&#xcb;" horiz-adv-x="1200" d="M100 0V1500H1100V1155H496V923H1060V578H496V345H1110V0H100ZM835 1689Q772 1689 734 1727T695 1829Q695 1892 733 1930T835 1969Q898 1969 936 1931T975 1829Q975 1766 937 1728T835 1689ZM366 1689Q303 1689
265 1727T226 1829Q226 1892 264 1930T366 1969Q429 1969 467 1931T506 1829Q506 1766 468 1728T366 1689Z" />
<glyph unicode="&#xcc;" horiz-adv-x="596" d="M447 1660L316 2000H-14L187 1660H447ZM496 1500H100V0H496V1500Z" />
<glyph unicode="&#xcd;" horiz-adv-x="596" d="M432 1660L632 2000H303L171 1660H432ZM496 1500H100V0H496V1500Z" />
<glyph unicode="&#xce;" horiz-adv-x="597" d="M670 1660L445 2000H152L-73 1660H196L298 1852L400 1660H670ZM497 1500H101V0H497V1500Z" />
<glyph unicode="&#xcf;" horiz-adv-x="596" d="M496 1500H100V0H496V1500ZM533 1689Q470 1689 432 1727T393 1829Q393 1892 431 1930T533 1969Q596 1969 634 1931T673 1829Q673 1766 635 1728T533 1689ZM64 1689Q1 1689 -37 1727T-76 1829Q-76 1892 -38 1930T64
1969Q127 1969 165 1931T204 1829Q204 1766 166 1728T64 1689Z" />
<glyph unicode="&#xd0;" horiz-adv-x="1634" d="M194 0V603H10V883H194V1500H725Q994 1500 1193 1407T1503 1146T1614 750Q1614 524 1504 355T1194 93T725 0H194ZM810 603H590V345H738Q890 345 995 392T1154 529T1209 750Q1209 881 1155 971T995 1108T738 1155H590V883H810V603Z"
/>
<glyph unicode="&#xd1;" horiz-adv-x="1602" d="M1217 1981Q1217 1836 1159 1762T985 1688Q915 1688 870 1711T788 1759Q757 1780 727 1796T655 1813Q546 1813 540 1696H412Q412 1990 650 1990Q724 1990 771 1967T859 1917Q891 1897 920 1881T987 1865Q1083 1865
1089 1981H1217ZM1502 0H1036L496 890V0H100V1500H566L1106 607V1500H1502V0Z" />
<glyph unicode="&#xd2;" horiz-adv-x="1710" d="M1007 1660H746L546 2000H875L1007 1660ZM856 -30Q684 -30 539 28T286 192T119 440T60 750Q60 918 119 1060T285 1307T538 1471T857 1530Q1029 1530 1174 1472T1425 1308T1591 1060T1650 750Q1650 582 1591 440T1426
193T1174 29T856 -30ZM856 315Q939 315 1010 348T1133 440T1215 579T1245 750Q1245 842 1216 921T1134 1059T1010 1152T856 1185Q773 1185 702 1152T577 1060T495 921T465 750Q465 658 494 579T577 441T701 348T856 315Z" />
<glyph unicode="&#xd3;" horiz-adv-x="1710" d="M966 1660H706L837 2000H1167L966 1660ZM856 -30Q684 -30 539 28T286 192T119 440T60 750Q60 918 119 1060T285 1307T538 1471T856 1530Q1029 1530 1174 1472T1425 1308T1591 1060T1650 750Q1650 582 1591 440T1426
193T1174 29T856 -30ZM856 315Q939 315 1010 348T1133 440T1215 579T1245 750Q1245 842 1216 921T1134 1059T1010 1152T856 1185Q773 1185 702 1152T577 1060T495 921T465 750Q465 658 494 579T577 441T701 348T856 315Z" />
<glyph unicode="&#xd4;" horiz-adv-x="1710" d="M1227 1660H957L855 1852L754 1660H484L709 2000H1002L1227 1660ZM856 -30Q684 -30 539 28T286 192T119 440T60 750Q60 918 119 1060T285 1307T538 1471T856 1530Q1029 1530 1174 1472T1425 1308T1591 1060T1650
750Q1650 582 1591 440T1426 193T1174 29T856 -30ZM856 315Q939 315 1010 348T1133 440T1215 579T1245 750Q1245 842 1216 921T1134 1059T1010 1152T856 1185Q773 1185 702 1152T577 1060T495 921T465 750Q465 658 494 579T577 441T701 348T856 315Z" />
<glyph unicode="&#xd5;" horiz-adv-x="1710" d="M1258 1981Q1258 1836 1200 1762T1026 1688Q956 1688 911 1710T830 1758Q799 1781 768 1797T695 1813Q587 1813 581 1696H453Q453 1990 690 1990Q764 1990 812 1967T898 1918Q930 1896 960 1881T1028 1865Q1124
1865 1130 1981H1258ZM856 -30Q684 -30 539 28T286 192T119 440T60 750Q60 918 119 1060T285 1307T538 1471T857 1530Q1029 1530 1174 1472T1425 1308T1591 1060T1650 750Q1650 582 1591 440T1426 193T1174 29T856 -30ZM856 315Q939 315 1010 348T1133 440T1215
579T1245 750Q1245 842 1216 921T1134 1059T1010 1152T856 1185Q773 1185 702 1152T577 1060T495 921T465 750Q465 658 494 579T577 441T701 348T856 315Z" />
<glyph unicode="&#xd6;" horiz-adv-x="1710" d="M856 -30Q684 -30 539 28T286 192T119 440T60 750Q60 918 119 1060T285 1307T538 1471T857 1530Q1029 1530 1174 1472T1425 1308T1591 1060T1650 750Q1650 582 1591 440T1426 193T1174 29T856 -30ZM856 315Q939
315 1010 348T1133 440T1215 579T1245 750Q1245 842 1216 921T1134 1059T1010 1152T856 1185Q773 1185 702 1152T577 1060T495 921T465 750Q465 658 494 579T577 441T701 348T856 315ZM1090 1689Q1027 1689 989 1727T950 1829Q950 1892 988 1930T1090 1969Q1153
1969 1191 1931T1230 1829Q1230 1766 1192 1728T1090 1689ZM621 1689Q558 1689 520 1727T481 1829Q481 1892 519 1930T621 1969Q684 1969 722 1931T761 1829Q761 1766 723 1728T621 1689Z" />
<glyph unicode="&#xd7;" horiz-adv-x="1126" d="M821 22L563 280L305 22L100 227L358 485L100 743L305 948L562 690L821 948L1026 743L768 485L1026 227L821 22Z" />
<glyph unicode="&#xd8;" horiz-adv-x="1710" d="M600 -105L444 -35L481 54Q353 117 259 220T112 459T60 750Q60 918 119 1060T285 1307T538 1471T856 1530Q915 1530 972 1523T1082 1501L1122 1597L1278 1535L1239 1442Q1365 1378 1457 1275T1599 1038T1650 750Q1650
582 1591 440T1426 193T1174 29T856 -30Q800 -30 746 -24T641 -4L600 -105ZM623 397L946 1174Q924 1179 902 1182T856 1185Q773 1185 702 1152T577 1060T495 921T465 750Q465 677 484 611T539 491T623 397ZM856 315Q939 315 1010 348T1133 440T1215 579T1245 750Q1245
822 1227 886T1176 1003T1096 1096L777 323Q797 319 816 317T856 315Z" />
<glyph unicode="&#xd9;" horiz-adv-x="1544" d="M924 1660H663L463 2000H792L924 1660ZM1444 1500V677Q1444 457 1364 299T1133 55T772 -30Q563 -30 412 55T181 298T100 677V1500H496V731Q496 588 525 496T616 360T772 315Q867 315 928 359T1018 496T1048 731V1500H1444Z" />
<glyph unicode="&#xda;" horiz-adv-x="1544" d="M883 1660H623L754 2000H1084L883 1660ZM1444 1500V677Q1444 457 1364 299T1133 55T772 -30Q563 -30 412 55T181 298T100 677V1500H496V731Q496 588 525 496T616 360T772 315Q867 315 928 359T1018 496T1048 731V1500H1444Z"
/>
<glyph unicode="&#xdb;" horiz-adv-x="1544" d="M1144 1660H874L772 1852L671 1660H401L626 2000H919L1144 1660ZM1444 1500V677Q1444 457 1364 299T1133 55T772 -30Q563 -30 412 55T181 298T100 677V1500H496V731Q496 588 525 496T616 360T772 315Q867 315 928
359T1018 496T1048 731V1500H1444Z" />
<glyph unicode="&#xdc;" horiz-adv-x="1544" d="M1444 1500V677Q1444 457 1364 299T1133 55T772 -30Q563 -30 412 55T181 298T100 677V1500H496V731Q496 588 525 496T616 360T772 315Q867 315 928 359T1018 496T1048 731V1500H1444ZM1007 1689Q944 1689 906 1727T867
1829Q867 1892 905 1930T1007 1969Q1070 1969 1108 1931T1147 1829Q1147 1766 1109 1728T1007 1689ZM538 1689Q475 1689 437 1727T398 1829Q398 1892 436 1930T538 1969Q601 1969 639 1931T678 1829Q678 1766 640 1728T538 1689Z" />
<glyph unicode="&#xdd;" horiz-adv-x="1532" d="M877 1660H617L748 2000H1078L877 1660ZM964 0H568V641L10 1500H491L764 994L1041 1500H1522L964 640V0Z" />
<glyph unicode="&#xde;" horiz-adv-x="1242" d="M470 0H100V1500H470V1210H645Q802 1210 918 1154T1098 995T1162 754Q1162 615 1098 511T917 348T645 290H470V0ZM470 620H564Q677 620 730 651T784 750Q784 817 730 848T563 880H470V620Z" />
<glyph unicode="&#xdf;" horiz-adv-x="1294" d="M496 0H100V1069Q100 1207 167 1310T353 1472T631 1530Q789 1530 909 1480T1098 1340T1166 1132Q1166 1058 1142 1010T1082 931T1013 877Q981 855 958 835T935 786Q935 754 965 733T1041 688Q1073 671 1108 649T1174
595T1224 514T1244 398Q1244 270 1170 176T960 31T639 -20L572 315Q666 315 731 336T830 396T865 491Q865 534 847 562T800 609T741 645Q698 668 664 695T630 774Q630 813 650 836T699 881Q720 897 740 915T774 961T787 1031Q787 1078 770 1112T720 1166T643 1185Q573
1185 535 1134T496 988V0Z" />
<glyph unicode="&#xe0;" horiz-adv-x="1129" d="M725 1160H464L264 1500H593L725 1160ZM1049 0H726L708 110Q653 47 575 14T405 -20Q302 -20 222 19T96 128T50 287Q50 381 100 452T238 563T441 604Q503 604 563 592T680 555V571Q680 617 651 652T569 707T447 727Q381
727 318 707T204 650L110 921Q220 970 328 995T535 1020Q692 1020 807 960T986 789T1049 528V0ZM490 249Q535 249 578 269T650 320T678 383V384Q642 405 598 416T510 428Q447 428 411 405T374 340Q374 314 389 293T430 261T490 249Z" />
<glyph unicode="&#xe1;" horiz-adv-x="1129" d="M694 1160H434L565 1500H895L694 1160ZM1049 0H726L708 110Q653 47 575 14T405 -20Q302 -20 222 19T96 128T50 287Q50 381 100 452T238 563T441 604Q503 604 563 592T680 555V571Q680 617 651 652T569 707T447 727Q381
727 318 707T204 650L110 921Q220 970 328 995T535 1020Q692 1020 807 960T986 789T1049 528V0ZM490 249Q535 249 578 269T650 320T678 383V384Q642 405 598 416T510 428Q447 428 411 405T374 340Q374 314 389 293T430 261T490 249Z" />
<glyph unicode="&#xe2;" horiz-adv-x="1129" d="M936 1160H665L563 1352L462 1160H192L417 1500H711L936 1160ZM1049 0H726L708 110Q653 47 575 14T405 -20Q302 -20 222 19T96 128T50 287Q50 381 100 452T238 563T441 604Q503 604 563 592T680 555V571Q680 617
651 652T569 707T447 727Q381 727 318 707T204 650L110 921Q220 970 328 995T535 1020Q692 1020 807 960T986 789T1049 528V0ZM490 249Q535 249 578 269T650 320T678 383V384Q642 405 598 416T510 428Q447 428 411 405T374 340Q374 314 389 293T430 261T490 249Z"
/>
<glyph unicode="&#xe3;" horiz-adv-x="1129" d="M967 1481Q967 1336 909 1262T735 1188Q665 1188 620 1210T539 1258Q508 1281 477 1297T404 1313Q296 1313 290 1196H162Q162 1490 399 1490Q473 1490 521 1467T607 1418Q639 1396 669 1381T737 1365Q833 1365 839
1481H967ZM1049 0H726L708 110Q653 47 575 14T405 -20Q302 -20 222 19T96 128T50 287Q50 381 100 452T238 563T441 604Q503 604 563 592T680 555V571Q680 617 651 652T569 707T447 727Q381 727 318 707T204 650L110 921Q220 970 328 995T535 1020Q692 1020 807
960T986 789T1049 528V0ZM490 249Q535 249 578 269T650 320T678 383V384Q642 405 598 416T510 428Q447 428 411 405T374 340Q374 314 389 293T430 261T490 249Z" />
<glyph unicode="&#xe4;" horiz-adv-x="1129" d="M1049 0H726L708 110Q653 47 575 14T405 -20Q302 -20 222 19T96 128T50 287Q50 381 100 452T238 563T441 604Q503 604 563 592T680 555V571Q680 617 651 652T569 707T449 727Q381 727 318 707T204 650L110 921Q220
970 328 995T535 1020Q692 1020 807 960T986 789T1049 528V0ZM490 249Q535 249 578 269T650 320T678 383V384Q642 405 598 416T510 428Q447 428 411 405T374 340Q374 314 389 293T430 261T490 249ZM819 1189Q756 1189 718 1227T679 1329Q679 1392 717 1430T819
1469Q882 1469 920 1431T959 1329Q959 1266 921 1228T819 1189ZM350 1189Q287 1189 249 1227T210 1329Q210 1392 248 1430T350 1469Q413 1469 451 1431T490 1329Q490 1266 452 1228T350 1189Z" />
<glyph unicode="&#xe5;" horiz-adv-x="1129" d="M564 1080Q461 1080 398 1140T334 1300Q334 1399 397 1459T564 1520Q668 1520 731 1460T794 1300Q794 1201 731 1141T564 1080ZM564 1220Q600 1220 622 1242T644 1300Q644 1336 622 1358T564 1380Q528 1380 506
1358T484 1300Q484 1264 506 1242T564 1220ZM1049 0H726L708 110Q653 47 575 14T405 -20Q302 -20 222 19T96 128T50 287Q50 381 100 452T238 563T441 604Q503 604 563 592T680 555V571Q680 617 651 652T569 707T447 727Q381 727 318 707T204 650L110 921Q220 970
328 995T535 1020Q692 1020 807 960T986 789T1049 528V0ZM490 249Q535 249 578 269T650 320T678 383V384Q642 405 598 416T510 428Q447 428 411 405T374 340Q374 314 389 293T430 261T490 249Z" />
<glyph unicode="&#xe6;" horiz-adv-x="1776" d="M1662 105Q1493 -20 1289 -20Q1165 -20 1055 29T868 168Q826 108 764 66T625 2T460 -20Q339 -20 247 20T102 131T50 294Q50 389 104 463T253 581T467 624Q596 624 712 572L708 580Q684 640 615 675T450 710Q305
710 177 632L90 921Q188 970 284 995T468 1020Q590 1020 688 974T850 841Q920 927 1020 973T1236 1020Q1382 1020 1492 947T1664 744T1726 442V410H1059Q1079 369 1114 339T1196 294T1299 278Q1440 278 1565 369L1662 105ZM1042 545H1386Q1378 588 1354 620T1293
671T1212 689Q1168 689 1133 671T1074 621T1042 545ZM723 394Q699 418 648 433T540 448Q489 448 452 436T394 402T374 348Q374 319 392 296T443 261T519 248Q567 248 607 263T676 307T717 373L723 394Z" />
<glyph unicode="&#xe7;" horiz-adv-x="1063" d="M1023 169Q959 90 864 42T653 -17L613 -102Q688 -110 732 -150T776 -255Q776 -331 715 -381T559 -432Q482 -432 403 -395L451 -263Q486 -282 524 -282Q562 -282 585 -261T609 -206Q609 -174 586 -154T511 -134Q506
-134 500 -134T487 -135L533 -17Q392 -3 283 66T112 248T50 500Q50 650 120 767T314 952T595 1020Q729 1020 838 970T1021 834L806 607Q775 645 726 667T622 690Q566 690 522 666T453 600T428 502Q428 446 453 403T522 335T622 310Q676 310 726 332T806 393L1023
169Z" />
<glyph unicode="&#xe8;" horiz-adv-x="1165" d="M1051 105Q864 -20 645 -20Q476 -20 342 50T129 243T50 517Q50 661 120 774T310 954T583 1020Q742 1020 862 947T1049 744T1116 442V410H446Q464 371 496 340T576 289T688 270Q829 270 955 360L1051 105ZM429 560H778Q773
607 750 643T688 699T602 720Q554 720 518 698T460 640T429 560ZM744 1160H484L283 1500H613L744 1160Z" />
<glyph unicode="&#xe9;" horiz-adv-x="1165" d="M1051 105Q864 -20 645 -20Q476 -20 342 50T129 243T50 517Q50 661 120 774T310 954T583 1020Q742 1020 862 947T1049 744T1116 442V410H446Q464 371 496 340T576 289T688 270Q829 270 955 360L1051 105ZM429 560H778Q773
607 750 643T688 699T602 720Q554 720 518 698T460 640T429 560ZM714 1160H453L585 1500H914L714 1160Z" />
<glyph unicode="&#xea;" horiz-adv-x="1165" d="M1051 105Q864 -20 645 -20Q476 -20 342 50T129 243T50 517Q50 661 120 774T310 954T583 1020Q742 1020 862 947T1049 744T1116 442V410H446Q464 371 496 340T576 289T688 270Q829 270 955 360L1051 105ZM429 560H778Q773
607 750 643T688 699T602 720Q554 720 518 698T460 640T429 560ZM955 1160H685L583 1352L482 1160H212L437 1500H730L955 1160Z" />
<glyph unicode="&#xeb;" horiz-adv-x="1165" d="M1051 105Q864 -20 645 -20Q476 -20 342 50T129 243T50 517Q50 661 120 774T310 954T583 1020Q742 1020 862 947T1049 744T1116 442V410H446Q464 371 496 340T576 289T688 270Q829 270 955 360L1051 105ZM429 560H778Q773
607 750 643T688 699T602 720Q554 720 518 698T460 640T429 560ZM818 1189Q755 1189 717 1227T678 1329Q678 1392 716 1430T818 1469Q881 1469 919 1431T958 1329Q958 1266 920 1228T818 1189ZM349 1189Q286 1189 248 1227T209 1329Q209 1392 247 1430T349 1469Q412
1469 450 1431T489 1329Q489 1266 451 1228T349 1189Z" />
<glyph unicode="&#xec;" horiz-adv-x="570" d="M431 1160H171L-30 1500H300L431 1160ZM470 0H101V1000H470V0Z" />
<glyph unicode="&#xed;" horiz-adv-x="569" d="M402 1160H141L273 1500H602L402 1160ZM469 0H100V1000H469V0Z" />
<glyph unicode="&#xee;" horiz-adv-x="569" d="M657 1160H387L285 1352L183 1160H-86L139 1500H432L657 1160ZM469 0H100V1000H469V0Z" />
<glyph unicode="&#xef;" horiz-adv-x="569" d="M469 0H100V1000H469V0ZM519 1189Q456 1189 418 1227T379 1329Q379 1392 417 1430T519 1469Q582 1469 620 1431T659 1329Q659 1266 621 1228T519 1189ZM50 1189Q-13 1189 -51 1227T-90 1329Q-90 1392 -52 1430T50
1469Q113 1469 151 1431T190 1329Q190 1266 152 1228T50 1189Z" />
<glyph unicode="&#xf0;" horiz-adv-x="1181" d="M1079 1249L918 1188Q1037 1057 1099 903T1161 577Q1161 393 1093 257T900 45T605 -30Q445 -30 320 35T122 216T50 481Q50 613 107 714T265 872T498 930Q587 930 659 903T785 825Q756 892 713 956T605 1076L345
973L289 1113L483 1188Q439 1213 404 1227T313 1256L462 1500Q552 1457 636 1408T792 1304L1024 1389L1079 1249ZM608 315Q650 315 683 340T736 407T756 503Q756 557 736 599T682 666T604 691Q562 691 529 667T476 602T456 508Q456 455 476 411T531 341T608 315Z"
/>
<glyph unicode="&#xf1;" horiz-adv-x="1219" d="M1034 1481Q1034 1336 976 1262T802 1188Q732 1188 687 1211T605 1259Q574 1280 544 1296T472 1313Q363 1313 357 1196H229Q229 1490 467 1490Q541 1490 588 1467T676 1417Q708 1397 737 1381T804 1365Q900 1365
906 1481H1034ZM1139 0H770V482Q770 582 732 636T622 690Q549 690 509 636T469 482V0H100V1000H392L404 841Q457 929 542 974T743 1020Q929 1020 1034 905T1139 583V0Z" />
<glyph unicode="&#xf2;" horiz-adv-x="1188" d="M746 1160H485L285 1500H614L746 1160ZM595 -20Q438 -20 315 47T121 232T50 500Q50 650 120 767T314 952T595 1020Q753 1020 875 953T1068 768T1138 500Q1138 350 1068 233T876 48T595 -20ZM594 310Q642 310 679
334T738 402T760 502Q760 556 739 598T680 665T594 690Q546 690 509 666T450 599T428 502Q428 446 449 403T508 335T594 310Z" />
<glyph unicode="&#xf3;" horiz-adv-x="1188" d="M705 1160H445L576 1500H906L705 1160ZM595 -20Q438 -20 315 47T121 232T50 500Q50 650 120 767T314 952T595 1020Q753 1020 875 953T1068 768T1138 500Q1138 350 1068 233T876 48T595 -20ZM594 310Q642 310 679
334T738 402T760 502Q760 556 739 598T680 665T594 690Q546 690 509 666T450 599T428 502Q428 446 449 403T508 335T594 310Z" />
<glyph unicode="&#xf4;" horiz-adv-x="1188" d="M966 1160H696L594 1352L493 1160H223L448 1500H741L966 1160ZM595 -20Q438 -20 315 47T121 232T50 500Q50 650 120 767T314 952T595 1020Q753 1020 875 953T1068 768T1138 500Q1138 350 1068 233T876 48T595 -20ZM594
310Q642 310 679 334T738 402T760 502Q760 556 739 598T680 665T594 690Q546 690 509 666T450 599T428 502Q428 446 449 403T508 335T594 310Z" />
<glyph unicode="&#xf5;" horiz-adv-x="1188" d="M982 1481Q982 1336 924 1262T750 1188Q680 1188 635 1211T553 1259Q522 1280 492 1296T420 1313Q311 1313 305 1196H177Q177 1490 415 1490Q489 1490 536 1467T624 1417Q656 1397 685 1381T752 1365Q848 1365 854
1481H982ZM595 -20Q438 -20 315 47T121 232T50 500Q50 650 120 767T314 952T595 1020Q753 1020 875 953T1068 768T1138 500Q1138 350 1068 233T876 48T595 -20ZM594 310Q642 310 679 334T738 402T760 502Q760 556 739 598T680 665T594 690Q546 690 509 666T450
599T428 502Q428 446 449 403T508 335T594 310Z" />
<glyph unicode="&#xf6;" horiz-adv-x="1188" d="M596 -20Q438 -20 315 47T121 232T50 500Q50 650 120 767T314 952T596 1020Q753 1020 875 953T1068 768T1138 500Q1138 350 1068 233T876 48T596 -20ZM594 310Q642 310 679 334T738 402T760 502Q760 556 739 598T680
665T594 690Q546 690 509 666T450 599T428 502Q428 446 449 403T508 335T594 310ZM819 1189Q756 1189 718 1227T679 1329Q679 1392 717 1430T819 1469Q882 1469 920 1431T959 1329Q959 1266 921 1228T819 1189ZM350 1189Q287 1189 249 1227T210 1329Q210 1392 248
1430T350 1469Q413 1469 451 1431T490 1329Q490 1266 452 1228T350 1189Z" />
<glyph unicode="&#xf7;" horiz-adv-x="1000" d="M500 658Q433 658 387 705T341 819Q341 886 387 933T500 980Q568 980 614 933T661 819Q661 752 615 705T500 658ZM900 390H100V570H900V390ZM500 -20Q433 -20 387 27T341 141Q341 208 387 255T500 302Q568 302 614
255T661 141Q661 74 615 27T500 -20Z" />
<glyph unicode="&#xf8;" horiz-adv-x="1188" d="M414 -72L317 -32L344 33Q210 95 130 218T50 500Q50 650 120 767T314 952T595 1020Q634 1020 671 1016T744 1002L773 1072L871 1031L845 968Q979 907 1058 784T1138 500Q1138 350 1068 233T876 48T595 -20Q555 -20
517 -16T443 -2L414 -72ZM479 360L615 689Q608 690 594 690Q546 690 509 666T450 599T428 502Q428 459 441 423T479 360ZM594 310Q642 310 679 334T738 402T760 502Q760 544 747 580T709 641L573 311Q580 310 594 310Z" />
<glyph unicode="&#xf9;" horiz-adv-x="1219" d="M740 1160H479L279 1500H609L740 1160ZM1119 0H827L815 159Q763 71 677 26T476 -20Q290 -20 185 96T80 417V1000H449V518Q449 418 487 364T597 310Q670 310 710 364T750 518V1000H1119V0Z" />
<glyph unicode="&#xfa;" horiz-adv-x="1219" d="M681 1160H420L552 1500H881L681 1160ZM1119 0H827L815 159Q763 71 677 26T476 -20Q290 -20 185 96T80 417V1000H449V518Q449 418 487 364T597 310Q670 310 710 364T750 518V1000H1119V0Z" />
<glyph unicode="&#xfb;" horiz-adv-x="1219" d="M883 1160H613L511 1352L410 1160H140L365 1500H658L883 1160ZM1119 0H827L815 159Q763 71 677 26T476 -20Q290 -20 185 96T80 417V1000H449V518Q449 418 487 364T597 310Q670 310 710 364T750 518V1000H1119V0Z" />
<glyph unicode="&#xfc;" horiz-adv-x="1219" d="M1119 0H827L815 159Q763 71 677 26T476 -20Q290 -20 185 96T80 417V1000H449V518Q449 418 487 364T597 310Q670 310 710 364T750 518V1000H1119V0ZM844 1189Q781 1189 743 1227T704 1329Q704 1392 742 1430T844
1469Q907 1469 945 1431T984 1329Q984 1266 946 1228T844 1189ZM375 1189Q312 1189 274 1227T235 1329Q235 1392 273 1430T375 1469Q438 1469 476 1431T515 1329Q515 1266 477 1228T375 1189Z" />
<glyph unicode="&#xfd;" horiz-adv-x="1367" d="M830 1160H569L701 1500H1030L830 1160ZM735 -500H346L552 -3L10 1000H449L726 416L968 1000H1357L735 -500Z" />
<glyph unicode="&#xfe;" horiz-adv-x="1236" d="M470 -500H100V1500H470V900Q529 957 604 988T767 1020Q898 1020 999 953T1158 768T1216 500Q1216 350 1158 233T999 48T767 -20Q679 -20 604 11T470 100V-500ZM654 310Q708 310 749 334T814 402T838 500Q838 555
815 598T750 665T654 690Q604 690 564 668T499 607T470 517V480Q474 431 498 393T563 332T654 310Z" />
<glyph unicode="&#xff;" horiz-adv-x="1369" d="M737 -500H347L553 -3L30 1000H450L727 416L969 1000H1359L737 -500ZM949 1189Q886 1189 848 1227T809 1329Q809 1392 847 1430T949 1469Q1012 1469 1050 1431T1089 1329Q1089 1266 1051 1228T949 1189ZM480 1189Q417
1189 379 1227T340 1329Q340 1392 378 1430T480 1469Q543 1469 581 1431T620 1329Q620 1266 582 1228T480 1189Z" />
<glyph unicode="&#x2013;" horiz-adv-x="1220" d="M1120 370H100V650H1120V370Z" />
<glyph unicode="&#x2014;" horiz-adv-x="2240" d="M2140 370H100V650H2140V370Z" />
<glyph unicode="&#x2018;" horiz-adv-x="551" d="M350 1070H100L244 1520H451L350 1070Z" />
<glyph unicode="&#x2019;" horiz-adv-x="551" d="M306 1070H100L201 1520H451L306 1070Z" />
<glyph unicode="&#x201a;" horiz-adv-x="490" d="M300 -240H60L130 200H420L300 -240Z" />
<glyph unicode="&#x201c;" horiz-adv-x="966" d="M350 1070H100L245 1520H451L350 1070ZM765 1070H515L659 1520H866L765 1070Z" />
<glyph unicode="&#x201d;" horiz-adv-x="966" d="M722 1070H515L616 1520H866L722 1070ZM307 1070H100L201 1520H451L307 1070Z" />
<glyph unicode="&#x201e;" horiz-adv-x="910" d="M719 -240H479L549 200H839L719 -240ZM300 -240H60L130 200H420L300 -240Z" />
<glyph unicode="&#x2022;" horiz-adv-x="620" d="M310 490Q220 490 160 549T100 700Q100 790 160 850T310 910Q402 910 461 850T520 700Q520 609 461 550T310 490Z" />
<glyph unicode="&#x2039;" horiz-adv-x="816" d="M716 116H371L20 524L371 932H716L354 524L716 116Z" />
<glyph unicode="&#x203a;" horiz-adv-x="816" d="M445 116H100L462 524L100 932H445L796 524L445 116Z" />
</font>
</defs>
</svg>
